#!OML:ASF H:\MichaelJackson\Top Level 1\Subject 1\Session 1\male.ASF
:FULLY-SPECIFIED
:DEGREES
741
root 20.6197 16.7758 15.4899 4.29868 129.506 3.76555
lowerback -2.42943 -5.42338 -3.25842
upperback -0.485409 -7.15303 0.994264
thorax 1.3792 -3.59036 2.5422
lowerneck -6.46744 -10.7994 -7.50234
upperneck 26.1796 -14.0602 3.25286
head 10.182 -6.59812 0.86429
rclavicle 5.29885e-015 -1.59028e-015
rhumerus -43.0844 28.2663 -90.0363
rradius 42.7394
rwrist 13.8913
rhand -27.5962 -18.2197
rfingers 7.12502
rthumb -0.995941 -408.197
lclavicle 5.29885e-015 -1.59028e-015
lhumerus -34.7365 6.03299 88.7346
lradius 27.0953
lwrist -20.8424
lhand -15.8498 8.52647
lfingers 7.12502
lthumb 10.345 38.252
rfemur -25.4551 -4.11425 12.3119
rtibia 63.1296
rfoot 16.3732 22.9038
rtoes 39.088
lfemur -19.3756 -2.12367 -19.1717
ltibia 44.3113
lfoot -19.7827 -5.1464
ltoes 20.6167
742
root 20.5772 16.7702 15.581 4.63802 130.593 3.68765
lowerback -2.46839 -5.12601 -2.77683
upperback -0.406893 -6.76724 0.954308
thorax 1.39422 -3.39632 2.25186
lowerneck -6.5585 -10.8249 -7.52348
upperneck 25.7214 -14.0833 3.2745
head 10.0369 -6.62136 0.874429
rclavicle -4.39438e-014 2.38542e-015
rhumerus -43.6206 29.8322 -90.3084
rradius 43.0389
rwrist 13.8263
rhand -28.2717 -18.6071
rfingers 7.12502
rthumb -1.64835 -408.58
lclavicle -4.39438e-014 2.38542e-015
lhumerus -34.6479 5.79877 88.7064
lradius 27.6832
lwrist -19.4038
lhand -16.1165 8.49983
lfingers 7.12502
lthumb 10.0877 38.238
rfemur -24.7647 -3.73187 12.9272
rtibia 61.8129
rfoot 13.2109 23.1492
rtoes 38.1501
lfemur -20.5617 -3.06572 -18.874
ltibia 44.6657
lfoot -19.3569 -5.78454
ltoes 21.1402
743
root 20.5289 16.7643 15.6739 4.98131 131.689 3.59708
lowerback -2.43758 -4.83408 -2.26896
upperback -0.312482 -6.39218 0.936661
thorax 1.39353 -3.2074 1.97348
lowerneck -6.62993 -10.8322 -7.5329
upperneck 25.1312 -14.0804 3.27859
head 9.83752 -6.63894 0.883847
rclavicle 1.649e-015 -2.78299e-015
rhumerus -44.2128 31.5124 -90.5912
rradius 43.4343
rwrist 13.7316
rhand -28.9821 -18.9802
rfingers 7.12502
rthumb -2.33441 -408.947
lclavicle 1.649e-015 -2.78299e-015
lhumerus -34.5649 5.46771 88.8078
lradius 28.4188
lwrist -17.5408
lhand -16.104 8.40668
lfingers 7.12502
lthumb 10.0999 38.1443
rfemur -24.1416 -3.31696 13.5223
rtibia 60.4424
rfoot 9.58735 23.2596
rtoes 36.4501
lfemur -21.7724 -3.93091 -18.6025
ltibia 45.0083
lfoot -19.0082 -6.36533
ltoes 21.5017
744
root 20.4752 16.7508 15.7698 5.29914 132.781 3.44243
lowerback -2.34254 -4.54905 -1.77615
upperback -0.216368 -6.02714 0.931664
thorax 1.36856 -3.02309 1.71936
lowerneck -6.67908 -10.8212 -7.53434
upperneck 24.4428 -14.0494 3.25909
head 9.5966 -6.64915 0.891075
rclavicle 1.33353e-013 3.18055e-015
rhumerus -44.8728 33.2883 -90.8776
rradius 43.9216
rwrist 13.6398
rhand -29.6823 -19.25
rfingers 7.12502
rthumb -3.01064 -409.209
lclavicle 1.33353e-013 3.18055e-015
lhumerus -34.5059 5.07118 89.0143
lradius 29.292
lwrist -15.2618
lhand -15.7452 8.30073
lfingers 7.12502
lthumb 10.4459 38.0212
rfemur -23.6195 -2.90673 14.0609
rtibia 59.1206
rfoot 5.5836 23.0319
rtoes 33.9927
lfemur -23.0291 -4.66994 -18.3962
ltibia 45.3577
lfoot -18.7639 -6.92752
ltoes 21.6994
745
root 20.4168 16.7259 15.8698 5.58199 133.868 3.20003
lowerback -2.18615 -4.27294 -1.32087
upperback -0.125483 -5.67288 0.926539
thorax 1.31393 -2.84389 1.48829
lowerneck -6.69159 -10.7941 -7.52866
upperneck 23.6716 -13.9989 3.23581
head 9.32034 -6.65288 0.90254
rclavicle -2.34504e-014 -9.74045e-015
rhumerus -45.6019 35.1249 -91.1749
rradius 44.5063
rwrist 13.5625
rhand -30.3262 -19.4417
rfingers 7.12502
rthumb -3.6325 -409.391
lclavicle -2.34504e-014 -9.74045e-015
lhumerus -34.4831 4.65026 89.2941
lradius 30.2914
lwrist -12.6393
lhand -15.0008 8.26755
lfingers 7.12502
lthumb 11.164 37.9506
rfemur -23.2188 -2.55713 14.5332
rtibia 57.9095
rfoot 1.32251 22.3103
rtoes 30.7802
lfemur -24.3404 -5.24247 -18.2755
ltibia 45.7088
lfoot -18.625 -7.53118
ltoes 21.7869
746
root 20.3546 16.6958 15.9731 5.84249 134.922 2.86334
lowerback -1.98384 -4.00118 -0.918153
upperback -0.0480895 -5.32188 0.912011
thorax 1.22911 -2.66625 1.27801
lowerneck -6.69012 -10.7554 -7.50048
upperneck 22.8594 -13.9351 3.20043
head 9.0269 -6.65039 0.910396
rclavicle 1.21445e-014 -1.19271e-015
rhumerus -46.3703 36.9939 -91.4838
rradius 45.1582
rwrist 13.4984
rhand -30.8892 -19.5235
rfingers 7.12502
rthumb -4.17618 -409.462
lclavicle 1.21445e-014 -1.19271e-015
lhumerus -34.508 4.22101 89.6188
lradius 31.4152
lwrist -9.70093
lhand -13.8674 8.39077
lfingers 7.12502
lthumb 12.2569 38.0116
rfemur -22.9627 -2.47104 14.929
rtibia 56.8107
rfoot -3.00473 21.1216
rtoes 26.6134
lfemur -25.6842 -5.60082 -18.2561
ltibia 46.0214
lfoot -18.59 -8.21039
ltoes 21.7596
747
root 20.2896 16.6671 16.079 6.07864 135.945 2.42055
lowerback -1.74483 -3.74458 -0.593311
upperback 0.0112534 -4.98765 0.884162
thorax 1.11594 -2.49727 1.09713
lowerneck -6.67461 -10.6933 -7.45469
upperneck 22.0276 -13.8432 3.16434
head 8.72456 -6.63312 0.920444
rclavicle -4.07757e-014 7.55382e-015
rhumerus -47.1775 38.8973 -91.8083
rradius 45.8862
rwrist 13.4375
rhand -31.3267 -19.4786
rfingers 7.12502
rthumb -4.59864 -409.409
lclavicle -4.07757e-014 7.55382e-015
lhumerus -34.6012 3.79781 89.9727
lradius 32.6535
lwrist -6.53663
lhand -12.4341 8.74454
lfingers 7.12502
lthumb 13.6386 38.2777
rfemur -22.8217 -2.65763 15.2464
rtibia 55.7764
rfoot -7.18959 19.3788
rtoes 21.229
lfemur -27.0181 -5.7114 -18.3583
ltibia 46.2271
lfoot -18.6299 -9.02754
ltoes 21.6268
748
root 20.2227 16.6449 16.1872 6.3188 136.931 1.90419
lowerback -1.48571 -3.49774 -0.324653
upperback 0.0625506 -4.66366 0.833954
thorax 0.989951 -2.33377 0.92303
lowerneck -6.66859 -10.6164 -7.3595
upperneck 21.1869 -13.7388 3.12422
head 8.41948 -6.60559 0.923408
rclavicle 2.09469e-014 4.67144e-015
rhumerus -47.9721 40.7793 -92.1259
rradius 46.683
rwrist 13.3852
rhand -31.5964 -19.3182
rfingers 7.12502
rthumb -4.85899 -409.242
lclavicle 2.09469e-014 4.67144e-015
lhumerus -34.7633 3.35229 90.3359
lradius 34.0049
lwrist -3.22757
lhand -10.8415 9.33353
lfingers 7.12502
lthumb 15.1732 38.7572
rfemur -22.7692 -2.99785 15.5197
rtibia 54.7363
rfoot -11.0408 16.9843
rtoes 14.3535
lfemur -28.2993 -5.58144 -18.566
ltibia 46.25
lfoot -18.6944 -9.99947
ltoes 21.4099
749
root 20.1544 16.6331 16.2972 6.57302 137.877 1.33639
lowerback -1.21286 -3.26565 -0.102633
upperback 0.111132 -4.3571 0.764414
thorax 0.859127 -2.17936 0.752761
lowerneck -6.68076 -10.5236 -7.22056
upperneck 20.3418 -13.6196 3.08259
head 8.11529 -6.56706 0.920504
rclavicle -1.15606e-014 -2.5345e-015
rhumerus -48.7093 42.6331 -92.4084
rradius 47.5265
rwrist 13.3374
rhand -31.6846 -18.9993
rfingers 7.12502
rthumb -4.94423 -408.922
lclavicle -1.15606e-014 -2.5345e-015
lhumerus -35.0032 2.88415 90.7054
lradius 35.4581
lwrist 0.133964
lhand -9.28604 10.0955
lfingers 7.12502
lthumb 16.6711 39.3996
rfemur -22.785 -3.47063 15.7468
rtibia 53.6322
rfoot -14.1567 14.1686
rtoes 7.03979
lfemur -29.4925 -5.23341 -18.8704
ltibia 46.0514
lfoot -18.738 -11.1327
ltoes 21.1229
750
root 20.0853 16.6348 16.4082 6.85251 138.78 0.73908
lowerback -0.93624 -3.0507 0.0835835
upperback 0.15944 -4.07174 0.679054
thorax 0.730438 -2.03585 0.583361
lowerneck -6.69591 -10.4124 -7.04303
upperneck 19.4859 -13.4826 3.04447
head 7.80779 -6.51664 0.915289
rclavicle 9.06147e-014 -8.72168e-015
rhumerus -49.3629 44.4502 -92.6298
rradius 48.4121
rwrist 13.3093
rhand -31.5612 -18.5538
rfingers 7.12502
rthumb -4.82506 -408.479
lclavicle 9.06147e-014 -8.72168e-015
lhumerus -35.3305 2.40115 91.0726
lradius 37.0047
lwrist 3.45781
lhand -7.93605 10.9378
lfingers 7.12502
lthumb 17.9704 40.1275
rfemur -22.8654 -3.9679 15.9257
rtibia 52.4402
rfoot -16.5265 11.1727
rtoes -0.327679
lfemur -30.5838 -4.70796 -19.2603
ltibia 45.6361
lfoot -18.7168 -12.3824
ltoes 20.8062
751
root 20.0155 16.6489 16.5209 7.17794 139.635 0.155398
lowerback -0.65718 -2.85156 0.259329
upperback 0.212819 -3.80634 0.590326
thorax 0.608728 -1.90244 0.413578
lowerneck -6.71719 -10.2852 -6.83208
upperneck 18.6158 -13.3283 3.00144
head 7.49628 -6.45589 0.905533
rclavicle -2.83827e-014 5.59082e-015
rhumerus -49.8953 46.218 -92.7437
rradius 49.3372
rwrist 13.3051
rhand -31.2281 -17.9625
rfingers 7.12502
rthumb -4.50338 -407.895
lclavicle -2.83827e-014 5.59082e-015
lhumerus -35.7307 1.89917 91.4428
lradius 38.6122
lwrist 6.64069
lhand -6.94601 11.7287
lfingers 7.12502
lthumb 18.9227 40.8283
rfemur -23.0244 -4.36819 16.0684
rtibia 51.1805
rfoot -18.1626 8.24633
rtoes -6.77655
lfemur -31.5819 -4.05463 -19.6996
ltibia 45.0489
lfoot -18.5868 -13.655
ltoes 20.5101
752
root 19.9446 16.6708 16.6351 7.5305 140.452 -0.424933
lowerback -0.371977 -2.67694 0.416324
upperback 0.267649 -3.57248 0.504637
thorax 0.488806 -1.78492 0.255068
lowerneck -6.7384 -10.1414 -6.6091
upperneck 17.7388 -13.1512 2.94369
head 7.18293 -6.38437 0.891858
rclavicle -1.17556e-013 -6.06293e-015
rhumerus -50.2928 47.9447 -92.7252
rradius 50.2955
rwrist 13.3251
rhand -30.6798 -17.2469
rfingers 7.12502
rthumb -3.97392 -407.19
lclavicle -1.17556e-013 -6.06293e-015
lhumerus -36.2006 1.42554 91.8134
lradius 40.2424
lwrist 9.55248
lhand -6.36857 12.3395
lfingers 7.12502
lthumb 19.478 41.3839
rfemur -23.2844 -4.62555 16.1396
rtibia 49.9205
rfoot -19.189 5.60128
rtoes -9.00491
lfemur -32.5022 -3.34171 -20.1974
ltibia 44.3789
lfoot -18.3492 -14.7979
ltoes 20.2161
